<?xml version="1.0" standalone="no"?>
<!DOCTYPE svg PUBLIC "-//W3C//DTD SVG 20010904//EN"
 "http://www.w3.org/TR/2001/REC-SVG-20010904/DTD/svg10.dtd">
<svg version="1.0" xmlns="http://www.w3.org/2000/svg"
 width="1171.000000pt" height="1280.000000pt" viewBox="0 0 1171.000000 1280.000000"
 preserveAspectRatio="xMidYMid meet">
<g transform="translate(0.000000,1280.000000) scale(0.100000,-0.100000)"
fill="#000000" stroke="none">
<path d="M11555 12694 c-1288 -888 -2591 -2076 -3945 -3594 -1475 -1656 -3026
-3783 -4315 -5918 -72 -119 -115 -180 -123 -177 -8 3 -716 474 -1575 1048
-859 574 -1568 1047 -1576 1052 -11 6 -10 2 2 -16 98 -140 3704 -5078 3709
-5079 3 0 34 66 68 148 1225 2918 2422 5234 3838 7427 1148 1777 2481 3497
3899 5028 91 97 163 177 161 177 -2 0 -67 -43 -143 -96z"/>
</g>
</svg>
